<svg xmlns="http://www.w3.org/2000/svg" width="25" height="25" viewBox="0 0 25 25"><path style="line-height:normal;text-indent:0;text-align:start;text-decoration-line:none;text-decoration-style:solid;text-decoration-color:#000;text-transform:none;block-progression:tb;white-space:normal;isolation:auto;mix-blend-mode:normal;solid-color:#000;solid-opacity:1" fill-rule="evenodd" d="m 9.4960938,3.9960938 c -0.1297602,0.00361 -0.2530305,0.057543 -0.34375,0.1503906 l -4,4 c -0.00804,0.00691 -0.015855,0.014076 -0.023438,0.021484 -0.00399,0.00449 -0.00789,0.00904 -0.011719,0.013672 L 5.1132812,8.1875 C 5.0206761,8.2996158 4.9814622,8.4464896 5.0058594,8.5898438 l 0,15.9101562 c 2.76e-5,0.276131 0.2238691,0.499972 0.5,0.5 l 12.0996096,0 c 0.255245,0.501494 0.589068,0.973833 1.007812,1.392578 2.14492,2.14492 5.638283,2.142587 7.783203,-0.002 2.14492,-2.14491 2.14493,-5.634377 0,-7.779297 l 0,-0.002 C 26.271313,18.48411 26.139673,18.368289 26.005859,18.257718 l 0,-13.757812 c -0.0011,-0.2753679 -0.22463,-0.4980216 -0.5,-0.4980469 L 25.505859,4 9.5761719,4 C 9.5496269,3.99656 9.5228479,3.99525 9.4960938,3.9960938 Z M 9.7128906,5 24.298828,5 l -3,3 -14.5859374,0 z m 15.2929684,0.7070312 0,11.8945308 c -0.93447,-0.475919 -1.977838,-0.670069 -3,-0.578124 l 0,-8.3164068 z M 6.0058594,9 21.005859,9 l 0,8.210938 c -0.87635,0.246499 -1.704571,0.710311 -2.392578,1.398437 C 17.156467,20.066196 16.692742,22.143927 17.214844,24 L 6.0058594,24 Z m 16.4999996,8.994141 c 1.151333,2.97e-4 2.302204,0.44107 3.183594,1.322265 1.76277,1.76277 1.76277,4.604418 0,6.367188 -1.76278,1.76277 -4.606361,1.765113 -6.369141,0.002 -1.762769,-1.76277 -1.762759,-4.608314 0,-6.371094 0.88139,-0.881385 2.034215,-1.32061 3.185547,-1.320312 z M 7.0058594,18 l 0,1 5.9999996,0 0,-1 z m 15.4921876,1.013672 c -0.275372,0.0043 -0.495421,0.230472 -0.492188,0.505859 l 0,0.236328 c -0.705192,0.205637 -1.242187,0.824591 -1.242187,1.582032 0,0.92957 0.803987,1.660146 1.742187,1.660156 0.43627,0 0.740235,0.304466 0.740235,0.660156 0,0.352686 -0.299965,0.65327 -0.730469,0.658203 -0.0059,-1.03e-4 -0.01172,-1.03e-4 -0.01758,0 l -0.002,0 c -0.430553,-0.0049 -0.732422,-0.305498 -0.732422,-0.658203 0.0096,-0.676167 -1.009568,-0.676167 -1,0 0,0.757311 0.537119,1.374351 1.242187,1.580078 l 0,0.242188 c -0.0096,0.676167 1.009568,0.676167 1,0 l 0,-0.242188 c 0.704586,-0.205727 1.240235,-0.822767 1.240235,-1.580078 0,-1.225647 -1.002941,-1.669253 -1.740235,-1.660156 -0.436187,0.0054 -0.742187,-0.304576 -0.742187,-0.660156 0,-0.348221 0.295152,-0.643826 0.716797,-0.65625 0.01818,0.0016 0.03644,0.0023 0.05469,0.002 0.419081,0.01447 0.710938,0.30735 0.710938,0.654297 -0.0096,0.676167 1.009568,0.676167 1,0 0,-0.741524 -0.552029,-1.264509 -1.240235,-1.470703 l 0,-0.347657 c 0.0033,-0.281503 -0.226324,-0.510248 -0.507812,-0.505859 z M 7.0058594,20 l 0,1 3.9999996,0 0,-1 z" color="#000" enable-background="accumulate" font-family="sans-serif" font-weight="400" overflow="visible"/></svg>