<svg width="27" height="25" viewBox="0 0 27 25" fill="none" xmlns="http://www.w3.org/2000/svg">
<path d="M27 7.35707V13.7584C27 13.9243 26.8981 14.1144 26.7576 14.2001C26.5207 14.3474 26.27 14.3126 26.0965 14.1706L23.4877 12.3501C22.7852 11.8575 21.8679 11.7932 21.0992 12.1841L18.1791 13.6593C17.5731 13.9672 16.8926 14.1278 16.2094 14.1278H10.1185C9.42156 14.1278 8.73009 13.9591 8.11573 13.6432L0.658496 9.78533C-0.0798065 9.40515 -0.228543 8.43867 0.371994 7.86843C1.43535 6.84839 3.04139 6.61819 4.36372 7.29818L8.70804 9.53632C9.41053 9.89774 10.1681 10.0557 10.8926 9.99949C12.8623 9.84151 14.7659 9.27126 16.5455 8.30479C16.6804 8.23251 16.7576 8.09596 16.7576 7.95674C16.7576 7.90856 16.7493 7.86038 16.7301 7.81486C16.6502 7.62746 16.4381 7.5311 16.2397 7.59532L12.81 8.84828C11.8705 9.14814 10.8623 8.7064 10.4877 7.84433C10.0524 6.84572 10.6089 5.70789 11.675 5.40003L16.6419 3.81241C17.978 3.4269 19.3746 3.43223 20.6969 3.82046C22.2809 4.28629 26.6556 6.87253 26.6831 6.87253C26.8815 6.96889 27 7.15363 27 7.35707ZM4.15159 21.3322C3.11302 21.3322 2.26728 22.1541 2.26728 23.1688C2.26728 24.1781 3.11302 25 4.15159 25C5.19565 25 6.04413 24.1781 6.04413 23.1688C6.04418 22.1541 5.1957 21.3322 4.15159 21.3322ZM4.98631 13.8092C3.94774 13.8092 3.10205 14.6338 3.10205 15.6484C3.10205 16.6578 3.94774 17.4797 4.98631 17.4797C6.03036 17.4797 6.87885 16.6578 6.87885 15.6484C6.87885 14.6338 6.03042 13.8092 4.98631 13.8092ZM9.22319 8.59127C9.41053 8.68497 9.60062 8.76262 9.79619 8.8188C9.66945 8.6475 9.55927 8.46005 9.47388 8.26193C9.14328 7.50695 9.16259 6.65022 9.52071 5.90862C9.87884 5.1724 10.5427 4.61553 11.3444 4.37723L16.3278 2.78694C16.8925 2.62363 17.4711 2.51922 18.0551 2.47637C16.3777 0.717543 13.364 -0.612761 10.9973 0.291741C9.73833 0.776337 8.67223 1.63573 7.82649 2.8485C6.02324 3.05881 4.67111 4.43889 3.73286 5.94337C4.13229 6.02636 4.518 6.16558 4.87887 6.35031L9.22319 8.59127ZM10.1075 17.9214C9.06891 17.9214 8.22317 18.746 8.22317 19.758C8.22317 20.7674 9.06891 21.5892 10.1075 21.5892C11.1515 21.5892 12 20.7673 12 19.758C12.0001 18.746 11.1516 17.9214 10.1075 17.9214Z" fill="black"/>
</svg>
