<svg xmlns="http://www.w3.org/2000/svg" enable-background="new 0 0 500 500" viewBox="0 0 500 500"><path d="M382.5,354.7c-27.1-27.5-71.2-44.6-119.4-46.8c4.5-17.9,12.1-56,6-89.2c7.6,2.9,16.7,5.2,26.8,5.2c5.6,0,11.4-0.7,17.5-2.3
		c25.3-6.7,47.5-28,65.8-63.2c2.7-5.2,2.9-11.2,0.4-16.6c-2.4-5.3-7.1-9.2-12.8-10.6c-38.6-9.3-69.2-6.5-90.9,8.2
		c-14.7,10-22.6,23.5-26.9,35.4c-8.4-9.9-21.3-20.4-39.6-24.3c-25.6-5.5-55,3.5-87.3,26.6c-4.8,3.4-7.6,8.7-7.9,14.6
		c-0.2,5.9,2.2,11.4,6.6,15.2c26.8,22.9,52.3,34.4,75.9,34.4c3,0,5.9-0.2,8.8-0.6c22.1-2.8,37.2-15.4,46.2-25.8
		c8.7,33.2-1.3,77.5-5.4,92.9c-49.8,1.3-95.8,18.6-123.7,46.9c-3.3,3.3-4.2,8.2-2.4,12.4c1.8,4.2,5.9,7,10.5,7h243.6
		c4.6,0,8.7-2.7,10.5-7C386.7,362.9,385.7,358,382.5,354.7z M285,152.8c10.6-7.2,24.2-10.8,40.7-10.8c11.2,0,23.6,1.6,37.3,4.9
		c1.1,0.3,1.7,1.1,1.9,1.6c0.2,0.5,0.5,1.4,0,2.4c-16.1,31-34.9,49.6-55.6,55.1c-20,5.3-37.4-2.7-46.4-8.4c-0.6-1.4-1.3-2.8-2-4.2
		C262.5,182.9,267.8,164.4,285,152.8z M244,198.7c-6,8.6-19.3,23.3-40.5,26c-21.3,2.7-45.6-7.4-72.2-30.1c-0.9-0.8-1-1.7-1-2.2
		c0-0.5,0.2-1.5,1.1-2.2c28.4-20.4,53.5-28.4,74.5-23.9c20.8,4.4,32.8,20.3,38.1,29.3C244.7,196.6,244.7,197.8,244,198.7z
		 M143.1,358c26.7-21.6,66.6-34.2,109.5-34.2s82.8,12.6,109.5,34.2H143.1z"/></svg>